<?xml version="1.0" encoding="UTF-8"?>
<svg version="1.1" xmlns="http://www.w3.org/2000/svg" width="1111" height="1422">
<path d="M0 0 C3.02283299 -0.29148863 5.84037211 -0.38836381 8.86499023 -0.35644531 C9.78395584 -0.35848969 10.70292145 -0.36053406 11.6497345 -0.36264038 C14.70288691 -0.36565994 17.75550501 -0.34712409 20.80859375 -0.328125 C22.93172573 -0.325067 25.05485972 -0.32319119 27.17799377 -0.32244873 C31.63949201 -0.31783698 36.10081064 -0.3033867 40.56225586 -0.28125 C46.25807777 -0.25312149 51.95375724 -0.24205442 57.64964199 -0.2375679 C63.0984773 -0.23238421 68.54727745 -0.21784573 73.99609375 -0.203125 C75.02674894 -0.20124428 76.05740414 -0.19936356 77.11929131 -0.19742584 C111.39475501 -0.11672063 111.39475501 -0.11672063 125 10 C126.485 10.99 126.485 10.99 128 12 C128 12.66 128 13.32 128 14 C128.58910156 14.23847656 129.17820312 14.47695313 129.78515625 14.72265625 C146.13976987 24.1546821 150.07699434 56.62701194 154.625 73.4375 C155.3434721 76.09104727 156.06291025 78.74431243 156.78549194 81.39674377 C157.22983176 83.0278702 157.67193327 84.65960891 158.11123657 86.292099 C159.37978216 90.94970985 160.81430651 95.50827499 162.4324646 100.05702209 C163 102 163 102 163 105 C163.72849065 104.99924056 164.4569813 104.99848112 165.20754743 104.99769866 C208.35456693 104.95297217 251.50158391 104.91864189 294.64862193 104.89786934 C299.82580659 104.89536784 305.0029912 104.8927792 310.18017578 104.89013672 C311.21088864 104.8896121 312.24160149 104.88908748 313.30354807 104.88854696 C330.0071242 104.8798371 346.7106866 104.86406394 363.41425458 104.84569441 C380.54526102 104.82701151 397.67626027 104.81588669 414.80727649 104.81182301 C425.38362164 104.8090746 435.95992801 104.80038448 446.53626123 104.78416707 C453.78236931 104.77362005 461.02845725 104.77039418 468.27457246 104.77299725 C472.45929526 104.7742821 476.64395015 104.77227037 480.82866096 104.76158905 C484.6568147 104.75188886 488.48485454 104.75134395 492.3130134 104.75820221 C493.70069544 104.75905042 495.08838446 104.75648598 496.47605267 104.75023364 C498.3572905 104.74224771 500.23857124 104.74771183 502.11981583 104.75390434 C503.16632506 104.7531449 504.21283429 104.75238546 505.29105592 104.75160301 C508.02406297 105.00220646 509.66938855 105.59431513 512 107 C512.20424957 115.79569969 511.87330097 124.10236904 510.25 132.75 C510.04028564 133.89049805 509.83057129 135.03099609 509.61450195 136.20605469 C507.16098951 148.96464513 504.17560479 161.60801819 501.1875 174.25 C500.82150696 175.81760071 500.82150696 175.81760071 500.44812012 177.41687012 C497.24889245 191.05489479 493.43588178 204.3202859 488.84985352 217.55810547 C486.98678271 222.95128333 485.34898074 228.39864777 483.75 233.875 C475.77084851 260.5004959 465.7571985 286.39016858 455 312 C454.56526367 313.03527832 454.13052734 314.07055664 453.68261719 315.13720703 C451.48409228 320.35233306 449.25303751 325.55222444 446.98681641 330.73828125 C446.050215 332.88491051 445.12406843 335.03578815 444.19921875 337.1875 C435.04389501 358.30337232 425.35666165 380.33045769 413.5 400.0625 C410.61698095 404.91441011 407.90059848 409.83174535 405.26171875 414.8203125 C404 417 404 417 402 419 C398.93408203 419.24291992 398.93408203 419.24291992 395.0078125 419.23046875 C394.306633 419.23001053 393.60545349 419.22955231 392.88302612 419.2290802 C391.39172688 419.22605418 389.90043089 419.21815747 388.40917969 419.20581055 C386.16850055 419.18784871 383.92824276 419.18529901 381.6875 419.18554688 C373.41253487 419.16448483 365.23819364 418.86398628 357 418 C357.96743467 422.54694294 359.33746252 425.73104362 362 429.5625 C366.56561729 436.17707724 367.93957808 442.01358628 367 450 C365.34742179 456.27809352 362.96902494 461.82824023 359 467 C358.319375 467.969375 357.63875 468.93875 356.9375 469.9375 C352.10199321 475.59384899 344.45940024 480.49725302 337.0859375 481.8515625 C326.18816083 482.62705972 316.26232055 479.53901895 307.75 472.69140625 C300.43071698 465.61718851 297.53889426 455.25117343 296.6875 445.375 C296.84069104 436.33672864 301.62735478 426.37264522 308 420 C306.75330788 419.98786972 306.75330788 419.98786972 305.48143005 419.97549438 C297.58341013 419.89700165 289.68554816 419.80955478 281.78773403 419.71247292 C277.72904702 419.66288701 273.67038141 419.61655952 269.61157227 419.578125 C265.68216372 419.54078847 261.75295296 419.49431035 257.82371712 419.44193649 C256.33733716 419.4236455 254.85091525 419.40844833 253.36446953 419.39665604 C224.52160084 419.16002107 224.52160084 419.16002107 215 410 C213.4221875 408.8553125 213.4221875 408.8553125 211.8125 407.6875 C193.46336306 390.15388025 189.95774378 350.46449317 183.75708008 326.54492188 C182.16979424 320.49309071 180.3998913 314.49907461 178.625 308.5 C175.71722306 298.67180893 173.09251789 288.78923437 170.55517578 278.85961914 C168.80155037 272.02146247 166.96594551 265.21759219 165 258.4375 C162.86299579 251.06068528 160.80311677 243.66772179 158.8125 236.25 C158.53019531 235.19820557 158.24789062 234.14641113 157.95703125 233.06274414 C156.54301845 227.78419474 155.13404934 222.5043151 153.72802734 217.22363281 C146.81789336 191.17935039 146.81789336 191.17935039 139.421875 165.27026367 C134.88286046 149.92517575 130.87482004 134.43027396 126.875 118.9375 C125.79184246 114.75197325 124.70635007 110.56705793 123.61895752 106.38262939 C123.17082527 104.65757873 122.72308022 102.93242746 122.27557373 101.20721436 C120.58904664 94.70793716 118.89293149 88.21125014 117.18780518 81.71682739 C116.60835711 79.50455278 116.03161632 77.29156715 115.45770264 75.07785034 C114.64180801 71.93276559 113.81609638 68.7904027 112.98828125 65.6484375 C112.74677841 64.70874619 112.50527557 63.76905487 112.25645447 62.80088806 C110.85807136 57.53891267 109.13099265 52.7000701 106.76994324 47.78970337 C106 46 106 46 106 44 C99.19551789 41.62095061 93.16797139 40.55863223 85.97631836 40.58349609 C84.55739288 40.57061806 84.55739288 40.57061806 83.10980225 40.55747986 C80.01973811 40.53262082 76.92999832 40.52806059 73.83984375 40.5234375 C71.68175793 40.50911489 69.52368121 40.49335562 67.36561584 40.47622681 C61.71247146 40.43454038 56.0593836 40.40942653 50.40612793 40.38873291 C41.3263726 40.35278456 32.24675603 40.29208156 23.16714668 40.23024368 C19.99342514 40.21110981 16.81974104 40.19941616 13.64598083 40.18881226 C11.71702998 40.17860816 9.78807993 40.16825093 7.85913086 40.15771484 C6.97141495 40.15667252 6.08369904 40.15563019 5.16908264 40.15455627 C-0.88656395 40.11343605 -0.88656395 40.11343605 -2 39 C-2.11339674 36.3688144 -2.16417902 33.76487116 -2.16796875 31.1328125 C-2.17129715 30.34228485 -2.17462555 29.5517572 -2.17805481 28.73727417 C-2.18312785 27.06102075 -2.18546302 25.38475719 -2.18530273 23.70849609 C-2.18748492 21.14273392 -2.20562439 18.57740451 -2.22460938 16.01171875 C-2.22754407 14.38541814 -2.22952836 12.75911548 -2.23046875 11.1328125 C-2.23765427 10.36397736 -2.24483978 9.59514221 -2.25224304 8.80300903 C-2.23591079 4.99526776 -2.16425612 3.24638418 0 0 Z M282 163 C281.97422124 179.75758805 282.03665554 196.51260435 282.18359375 213.26953125 C282.19337816 214.40003088 282.20316257 215.53053051 282.21324348 216.6952877 C282.26490185 222.63923788 282.31802269 228.58317293 282.37231445 234.52709961 C282.42790228 240.64999586 282.47786441 246.77292563 282.52671719 252.89587879 C282.56558428 257.6355646 282.60867866 262.37520516 282.65294075 267.11484337 C282.67329019 269.37509456 282.69201518 271.635361 282.70907402 273.89563942 C282.73310844 277.03180468 282.7631445 280.16785751 282.79467773 283.30395508 C282.8004332 284.2321254 282.80618866 285.16029572 282.81211853 286.11659241 C282.82190735 286.96944824 282.83169617 287.82230408 282.84178162 288.70100403 C282.84823417 289.4391525 282.85468672 290.17730097 282.8613348 290.93781757 C283.00418596 293.06225219 283.42104174 294.95483655 284 297 C288.87656808 296.42683882 292.41441176 294.25473964 296.5625 291.8125 C297.98602666 290.99833233 299.41051581 290.18584533 300.8359375 289.375 C301.5381543 288.97410156 302.24037109 288.57320312 302.96386719 288.16015625 C305.85688675 286.51175949 308.75240827 284.8856509 311.6875 283.3125 C312.59886719 282.81363281 313.51023437 282.31476563 314.44921875 281.80078125 C317 281 317 281 319.609375 281.4921875 C322.7769923 283.49006377 323.80875619 285.50510395 325.5625 288.8125 C326.25957518 290.09420801 326.95754827 291.37542795 327.65625 292.65625 C328.03136719 293.35492187 328.40648437 294.05359375 328.79296875 294.7734375 C330.98743634 298.82148452 333.27770337 302.81495491 335.5625 306.8125 C336.05741943 307.6802002 336.55233887 308.54790039 337.06225586 309.44189453 C341.33612293 316.90526459 345.71165199 324.30610782 350.125 331.6875 C350.77670166 332.78102783 351.42840332 333.87455566 352.09985352 335.0012207 C353.01335571 336.52235474 353.01335571 336.52235474 353.9453125 338.07421875 C354.48687988 338.97744873 355.02844727 339.88067871 355.58642578 340.8112793 C356.94868971 343.08893378 356.94868971 343.08893378 359 345 C361.88786584 345.3740023 363.44219455 345.35116902 365.9296875 343.78515625 C366.89261719 342.93244141 366.89261719 342.93244141 367.875 342.0625 C372.52593956 338.21020663 377.46770667 335.20568435 382.68310547 332.19750977 C388.18923502 329.06156637 388.18923502 329.06156637 393 325 C393.94083078 319.9195138 392.16179348 316.86425471 389.5625 312.5625 C389.02713623 311.66494995 389.02713623 311.66494995 388.48095703 310.74926758 C387.72126697 309.47888781 386.95581636 308.21193764 386.18505859 306.94824219 C384.99891881 304.99822252 383.8347414 303.03658876 382.67578125 301.0703125 C379.50907751 295.71493652 376.32204106 290.39060713 372.8125 285.25 C369.49288062 280.37690971 366.72972645 275.22101294 364 270 C363.62101562 269.29488281 363.24203125 268.58976562 362.8515625 267.86328125 C361.57933343 265.07955066 361.62287506 263.01699953 362 260 C364.61511183 256.90698465 367.17048512 255.20453179 370.84375 253.5625 C371.76027344 253.14226562 372.67679688 252.72203125 373.62109375 252.2890625 C375.54036458 251.4296875 377.45963542 250.5703125 379.37890625 249.7109375 C380.29542969 249.29070312 381.21195313 248.87046875 382.15625 248.4375 C382.98962891 248.06496094 383.82300781 247.69242188 384.68164062 247.30859375 C387.24959764 245.85911507 389.01277253 244.16331092 391 242 C389.8219505 238.4658515 389.06036662 238.13079402 385.9921875 236.21875 C381.2215979 233.16014853 376.67074968 229.88111612 372.125 226.5 C370.46225085 225.26951602 368.79949009 224.03904774 367.13671875 222.80859375 C366.29157715 222.18194824 365.44643555 221.55530273 364.57568359 220.90966797 C348.91705662 209.27533105 348.91705662 209.27533105 333 198 C326.36758633 193.40931128 319.82787261 188.7148155 313.375 183.875 C312.5183374 183.23554443 311.6616748 182.59608887 310.77905273 181.93725586 C306.54933224 178.75800806 302.38470096 175.53015276 298.32421875 172.13671875 C297.60250488 171.53424316 296.88079102 170.93176758 296.13720703 170.31103516 C294.7860829 169.17232593 293.44404129 168.02272324 292.11279297 166.86083984 C291.50967285 166.35117676 290.90655273 165.84151367 290.28515625 165.31640625 C289.76832275 164.86724854 289.25148926 164.41809082 288.71899414 163.95532227 C286.42523943 162.68057973 284.58608168 162.935463 282 163 Z " fill="#D78E0E" transform="translate(187,454)"/>
<path d="M0 0 C3.53666603 2.81775302 6.79896906 5.80948148 10 9 C10.80546265 9.7432251 10.80546265 9.7432251 11.62719727 10.50146484 C16.39141683 15.00612695 19.75938628 19.85668289 23.0625 25.5 C23.58344238 26.38292725 24.10438477 27.26585449 24.64111328 28.17553711 C28.90209069 35.5471215 32.27413211 42.92224497 35 51 C35.38212646 52.09562256 35.38212646 52.09562256 35.77197266 53.21337891 C40.87208888 67.92962748 43.63463362 82.34186149 45.1875 97.8125 C45.31366699 99.06522705 45.31366699 99.06522705 45.44238281 100.34326172 C45.86583205 105.01495163 46.03790258 109.63119156 46.02075195 114.32299805 C46.01775589 115.3901152 46.01475983 116.45723236 46.01167297 117.5566864 C46.00782089 118.36297989 46.00396881 119.16927338 46 120 C47.11622317 120.00219984 47.11622317 120.00219984 48.2549963 120.00444412 C66.38404524 120.04153873 84.51290191 120.10058861 102.64179897 120.18390274 C111.40890741 120.22366705 120.17592642 120.25607277 128.94311523 120.27099609 C136.58697683 120.28402616 144.23064145 120.31102529 151.87439209 120.35461307 C155.91959432 120.37719756 159.96455388 120.3929125 164.00982475 120.39188385 C167.82258139 120.39113544 171.6348022 120.40915792 175.44742012 120.44116783 C176.84170205 120.44964009 178.23604428 120.451435 179.63034058 120.44580269 C190.98449701 120.40606995 198.76601231 122.26430189 207.14453125 130.07421875 C221.36683683 144.83547486 218.15013686 165.55685155 218.14526367 184.68310547 C218.14826094 187.04506991 218.15166477 189.40703387 218.15544128 191.76899719 C218.16422205 198.14247954 218.16661673 204.51594843 218.16725707 210.88943624 C218.16797029 214.87581711 218.17004643 218.86219571 218.17275429 222.84857559 C218.18153852 236.05070845 218.18617646 249.25283323 218.18542381 262.45496903 C218.18536388 263.5184996 218.18536388 263.5184996 218.18530273 264.60351562 C218.18526185 265.31341047 218.18522097 266.02330531 218.18517885 266.75471212 C218.18477166 278.28074233 218.19436537 289.80674 218.2084411 301.3327608 C218.22281501 313.19728164 218.22971092 325.06178661 218.22884732 336.92631638 C218.228516 343.57578696 218.23143184 350.22522743 218.24202538 356.87469101 C218.25170726 363.12104519 218.25178488 369.36732697 218.24450874 375.6136837 C218.24346342 377.90297362 218.24582266 380.19226805 218.2518692 382.48155022 C218.25959857 385.61090316 218.25493814 388.74000659 218.24723816 391.86935425 C218.2549535 393.221261 218.2549535 393.221261 218.26282471 394.60047901 C218.20038197 406.11694963 215.21374272 416.55809776 207 425 C198.49777157 431.74780034 190.68204201 433.31085514 180.06071472 433.23377991 C179.08819411 433.23478319 178.1156735 433.23578647 177.11368257 433.23682016 C173.87022048 433.23776922 170.6269776 433.22445435 167.38354492 433.21118164 C165.05228745 433.20897943 162.72102898 433.20767473 160.38977051 433.2071991 C155.37795933 433.2042697 150.3662136 433.19503617 145.35442162 433.18089485 C138.10505986 433.16050165 130.85572556 433.15152475 123.60633878 433.1459735 C111.83886157 433.13672962 100.07141229 433.11928651 88.30395508 433.09594727 C87.24875794 433.0938573 87.24875794 433.0938573 86.17224369 433.0917251 C85.46787669 433.09032957 84.76350968 433.08893404 84.03779823 433.08749622 C74.03993151 433.06770673 64.04206385 433.04988369 54.04418945 433.03442383 C53.3400695 433.03333298 52.63594954 433.03224213 51.91049262 433.03111822 C40.17956965 433.0131093 28.44864385 432.99914351 16.71771318 432.98725218 C8.83901076 432.9788289 0.96034367 432.96478863 -6.91834128 432.94627964 C-11.80885224 432.93566361 -16.69936286 432.92906273 -21.5898819 432.92347908 C-23.86395033 432.91999842 -26.13801682 432.91477341 -28.41207695 432.90771103 C-31.50660881 432.89830909 -34.60108873 432.89498949 -37.69563293 432.89320374 C-38.6035922 432.88892665 -39.51155146 432.88464957 -40.44702464 432.88024288 C-41.27362895 432.88100053 -42.10023326 432.88175819 -42.95188618 432.8825388 C-43.66636018 432.88107493 -44.38083418 432.87961106 -45.11695892 432.87810284 C-47.22758732 432.93459395 -47.22758732 432.93459395 -50 434 C-50.99750426 435.73651801 -50.99750426 435.73651801 -52 438 C-63.89069029 456.98169017 -78.00175504 474.39345724 -93.125 490.87890625 C-95.03475582 492.96526799 -95.03475582 492.96526799 -96.625 495.27734375 C-97.07875 495.84582031 -97.5325 496.41429687 -98 497 C-98.66 497 -99.32 497 -100 497 C-100.33 497.99 -100.66 498.98 -101 500 C-101.66 500 -102.32 500 -103 500 C-103.33 500.99 -103.66 501.98 -104 503 C-105.62339805 504.70884005 -107.29319053 506.37446717 -109 508 C-109.8353125 508.8971875 -109.8353125 508.8971875 -110.6875 509.8125 C-112 511 -112 511 -114 511 C-114 511.66 -114 512.32 -114 513 C-115.36328125 514.41015625 -115.36328125 514.41015625 -117.3125 516.0625 C-118.03308594 516.67351563 -118.75367188 517.28453125 -119.49609375 517.9140625 C-120.32238281 518.60242188 -121.14867187 519.29078125 -122 520 C-123.44052734 521.21816406 -123.44052734 521.21816406 -124.91015625 522.4609375 C-132.73846609 529 -132.73846609 529 -135 529 C-135 529.66 -135 530.32 -135 531 C-136.6796875 532.2890625 -136.6796875 532.2890625 -138.875 533.625 C-139.95394531 534.29402344 -139.95394531 534.29402344 -141.0546875 534.9765625 C-143 536 -143 536 -145 536 C-145 536.66 -145 537.32 -145 538 C-147.22281867 539.51831876 -149.42736499 540.89948772 -151.75 542.25 C-152.43521729 542.65259033 -153.12043457 543.05518066 -153.82641602 543.4699707 C-170.6455604 553.25554802 -186.45677836 560.15344872 -206.0625 560.3125 C-207.22716797 560.34150391 -208.39183594 560.37050781 -209.59179688 560.40039062 C-223.58348847 560.50172321 -235.11559225 555.94578778 -245.625 546.6875 C-246.40875 545.800625 -247.1925 544.91375 -248 544 C-248.67546875 543.30390625 -249.3509375 542.6078125 -250.046875 541.890625 C-272.1255529 518.62651473 -279.11066046 479.70191658 -279.265625 448.4765625 C-279 446 -279 446 -277 444 C-274.98461914 443.74121094 -274.98461914 443.74121094 -272.53515625 443.734375 C-271.65279297 443.73179687 -270.77042969 443.72921875 -269.86132812 443.7265625 C-268.93771484 443.73429687 -268.01410156 443.74203125 -267.0625 443.75 C-266.14275391 443.74226563 -265.22300781 443.73453125 -264.27539062 443.7265625 C-262.94991211 443.73042969 -262.94991211 443.73042969 -261.59765625 443.734375 C-260.78820557 443.73663086 -259.97875488 443.73888672 -259.14477539 443.74121094 C-257 444 -257 444 -254 446 C-253.48555665 448.7936709 -253.15847832 451.41448402 -252.9375 454.234375 C-252.86007568 455.06398743 -252.78265137 455.89359985 -252.70288086 456.74835205 C-252.45545292 459.41456913 -252.22631303 462.08191389 -252 464.75 C-249.54146814 497.77632766 -249.54146814 497.77632766 -232.64453125 525.1328125 C-224.39408799 531.24709448 -217.23586922 533.78996107 -206.97265625 532.5703125 C-202.30808904 531.6754021 -198.27243493 530.03822584 -194 528 C-193.05382812 527.5771875 -192.10765625 527.154375 -191.1328125 526.71875 C-179.46153749 521.26205 -163.05877886 511.11755772 -157 499 C-156.34 499 -155.68 499 -155 499 C-154.64615234 498.18015625 -154.64615234 498.18015625 -154.28515625 497.34375 C-152.66440557 494.38797369 -150.63409932 492.05754287 -148.4375 489.5 C-128.24897996 465.60753046 -110.39664948 438.35718714 -96.62109375 410.24609375 C-94.36643333 405.73133998 -91.98841568 401.28465034 -89.59790039 396.84057617 C-82.59480256 383.73701635 -76.28769102 370.4285333 -70.5 356.75 C-69.83839814 355.19461866 -69.17669451 353.6392806 -68.51489258 352.08398438 C-61.46610704 335.48555756 -54.85752011 318.78040674 -48.64379883 301.85009766 C-46.56778457 296.19785733 -44.45747047 290.56842891 -42.21728516 284.97924805 C-34.45971431 265.59881235 -28.81839251 245.40144255 -22.99560547 225.37548828 C-22.03689043 222.12507286 -21.04107742 218.88841569 -20.03515625 215.65234375 C-15.53703222 200.92341098 -12.19806445 186.09177538 -9.1875 171 C-8.99850128 170.05626526 -8.80950256 169.11253052 -8.61477661 168.14019775 C-6.02900728 155.14501306 -3.7856308 142.12938802 -2 129 C-1.89606934 128.26427765 -1.79213867 127.5285553 -1.68505859 126.77053833 C0.01480262 114.5404282 0.34176391 102.4067925 0.31567383 90.06811523 C0.31250014 86.93763783 0.33612865 83.80809693 0.36132812 80.67773438 C0.42167315 61.6416484 -0.29797622 39.76164695 -14 25 C-20.93941109 18.41645615 -29.31946628 16.67411996 -38.59765625 16.859375 C-53.16674085 17.71219946 -66.86027046 25.85856258 -78.1796875 34.703125 C-80 36 -80 36 -82 36 C-82 36.66 -82 37.32 -82 38 C-83.49481057 39.30567127 -85.049816 40.54251025 -86.625 41.75 C-91.50123885 45.65225599 -96.01297605 49.78047351 -100.4375 54.1875 C-101.02805176 54.76918945 -101.61860352 55.35087891 -102.22705078 55.95019531 C-105.65911823 59.40484861 -108.31226011 62.92147889 -111 67 C-112.63946643 68.69343006 -114.3058557 70.36127164 -116 72 C-122.44249451 79.25692306 -127.90762117 87.08237028 -133.34375 95.09765625 C-135.70470197 98.5785251 -138.10976934 102.02056182 -140.5625 105.4375 C-141.18253906 106.30246094 -141.80257812 107.16742187 -142.44140625 108.05859375 C-144 110 -144 110 -146 111 C-147.80134348 111.09654283 -149.60622869 111.1307544 -151.41015625 111.1328125 C-153.01793945 111.13474609 -153.01793945 111.13474609 -154.65820312 111.13671875 C-155.78162109 111.13285156 -156.90503906 111.12898437 -158.0625 111.125 C-159.75342773 111.13080078 -159.75342773 111.13080078 -161.47851562 111.13671875 C-162.54908203 111.13542969 -163.61964844 111.13414062 -164.72265625 111.1328125 C-165.71015869 111.13168457 -166.69766113 111.13055664 -167.71508789 111.12939453 C-170 111 -170 111 -171 110 C-170.73772831 97.93550207 -161.18671539 87.96093576 -154 79 C-153.34 78.15695312 -152.68 77.31390625 -152 76.4453125 C-146.69307828 69.70109949 -141.09260908 63.21113473 -135.48217773 56.71972656 C-133.4221256 54.3295096 -131.37658782 51.92695273 -129.33178711 49.52368164 C-127.32994441 47.23339744 -125.17575984 45.12516077 -123 43 C-122.3296875 42.319375 -121.659375 41.63875 -120.96875 40.9375 C-107.81711409 27.6057047 -107.81711409 27.6057047 -103 26 C-103 25.34 -103 24.68 -103 24 C-100.84898352 22.24257377 -98.69517026 20.61096055 -96.4375 19 C-95.42780151 18.27067261 -95.42780151 18.27067261 -94.39770508 17.52661133 C-87.91693409 12.87747719 -81.32833 8.39712175 -74.63378906 4.06201172 C-73.21356925 3.13882639 -71.80491617 2.19789418 -70.3984375 1.25390625 C-48.87750862 -12.60154127 -21.35774859 -15.1077969 0 0 Z M46 149 C45.58111619 151.91677239 45.28960206 154.76141969 45.0703125 157.6953125 C44.91555431 159.53395153 44.76059869 161.37257394 44.60546875 163.21118164 C44.52731934 164.17766632 44.44916992 165.144151 44.36865234 166.1399231 C43.0250346 182.60109167 41.44538405 198.82708391 38 215 C37.85095215 215.72058594 37.7019043 216.44117188 37.54833984 217.18359375 C36.63014146 221.59742502 35.62764884 225.98743127 34.59814453 230.37646484 C33.92618164 233.32377637 33.30511845 236.27993032 32.68359375 239.23828125 C23.59115558 281.45698812 8.72754189 322.15600033 -10 361 C-10.36222656 361.7523291 -10.72445313 362.5046582 -11.09765625 363.27978516 C-17.29709464 376.07747519 -23.8927086 388.7873716 -31.07763672 401.0612793 C-32.21480787 403.09368099 -32.21480787 403.09368099 -32 406 C-25.28111611 406.78749114 -18.68226458 407.14116067 -11.92016602 407.11083984 C-10.94720266 407.11047855 -9.97423931 407.11011726 -8.97179222 407.10974503 C-5.71163346 407.10697433 -2.45154808 407.09660919 0.80859375 407.0859375 C3.17630465 407.08162284 5.54401608 407.07759319 7.91172791 407.07382202 C15.22053037 407.05970506 22.52927597 407.03507954 29.83803844 407.00793266 C32.03099415 406.99988628 34.22395088 406.99220993 36.41690826 406.9846344 C55.63171022 406.91793947 74.84630726 406.82827662 94.06087685 406.71245193 C103.35090326 406.65660014 112.6409151 406.60752039 121.9310208 406.56685698 C128.59035273 406.53715778 135.24961764 406.49998795 141.90887827 406.45720994 C145.84354117 406.4321332 149.77815666 406.41028597 153.71287727 406.39665604 C157.36697126 406.38385916 161.02089201 406.361832 164.67489052 406.33261681 C166.64505317 406.3192435 168.61527449 406.3156238 170.58547974 406.31230164 C172.34667397 406.29555641 172.34667397 406.29555641 174.14344788 406.2784729 C175.1601056 406.27294214 176.17676332 406.26741138 177.22422886 406.26171303 C182.70791929 405.74468437 187.44853959 403.24040491 191 399 C193.88375173 393.41965432 194.42740613 389.01730544 194.36749268 382.790802 C194.37076152 381.8846225 194.37403036 380.97844299 194.37739825 380.0448035 C194.38465976 377.01944283 194.37053995 373.99456912 194.35644531 370.96923828 C194.35723647 368.79564329 194.3593346 366.62204843 194.36264038 364.44845581 C194.36777101 358.55169227 194.35424453 352.65510348 194.33711338 346.75836802 C194.32206373 340.58329098 194.32325104 334.40821609 194.32244873 328.23312378 C194.31875689 317.8612775 194.30379549 307.48949742 194.28125 297.11767578 C194.2523938 283.81580466 194.24202761 270.51401769 194.2375679 257.21211433 C194.23358263 245.76556927 194.22108054 234.31903575 194.20722103 222.87249899 C194.20312878 219.19870244 194.20019968 215.5249063 194.19742584 211.85110855 C194.19251818 206.07106839 194.18229008 200.29106022 194.16798782 194.51103592 C194.16348018 192.39268788 194.16062981 190.27433555 194.15958023 188.15598297 C194.15782294 185.25834536 194.14990983 182.36078655 194.14044189 179.46316528 C194.14130838 178.63036517 194.14217486 177.79756506 194.1430676 176.93952858 C194.32642143 165.95530739 194.32642143 165.95530739 190.1875 156.125 C189.68605469 155.40570312 189.18460938 154.68640625 188.66796875 153.9453125 C186.07308142 150.91895678 183.78576928 149.26192309 180 148 C178.21572069 147.90740984 176.42814415 147.87371221 174.64146423 147.87301636 C173.52956223 147.87019653 172.41766022 147.86737671 171.27206421 147.86447144 C170.05169464 147.86649567 168.83132507 147.8685199 167.57397461 147.87060547 C166.2892778 147.86885315 165.00458099 147.86710083 163.68095398 147.86529541 C160.15630679 147.86073278 156.63168883 147.86250572 153.10704112 147.8656745 C149.42174751 147.86820358 145.73645643 147.86585907 142.05116272 147.86428833 C135.86312408 147.86246847 129.67509737 147.86486838 123.48706055 147.86962891 C116.32691872 147.87507358 109.16680536 147.87330665 102.00666422 147.8678025 C95.86394568 147.86326901 89.72123573 147.86262191 83.57851607 147.86524117 C79.90754801 147.86680233 76.23659335 147.86700204 72.56562614 147.86370468 C68.47594381 147.86028786 64.3863108 147.86501955 60.29663086 147.87060547 C59.07423706 147.86858124 57.85184326 147.86655701 56.59240723 147.86447144 C54.92878395 147.86870117 54.92878395 147.86870117 53.23155212 147.87301636 C52.26387877 147.87339338 51.29620543 147.87377041 50.29920864 147.87415886 C47.97113773 147.84873768 47.97113773 147.84873768 46 149 Z " fill="#DFAD15" transform="translate(718,439)"/>
<path d="M0 0 C2.34765625 0.4140625 2.34765625 0.4140625 4.91015625 1.9765625 C6.85981474 5.28250516 7.34765625 7.56770381 7.34765625 11.4140625 C5.86443115 14.08386767 4.50649247 16.25522628 2.34765625 18.4140625 C-0.66881524 19.19934227 -3.53647162 19.56218545 -6.65234375 19.4140625 C-9.71484375 17.5390625 -9.71484375 17.5390625 -11.65234375 14.4140625 C-12.55799811 9.93430788 -12.14449463 6.51021674 -10.27734375 2.3515625 C-6.78980362 -0.22257426 -4.25620151 -0.23819684 0 0 Z " fill="#D3A915" transform="translate(892.65234375,698.5859375)"/>
</svg>
